<?xml version="1.0" encoding="utf-8"?>
<!-- Generator: Adobe Illustrator 25.3.1, SVG Export Plug-In . SVG Version: 6.00 Build 0)  -->
<svg version="1.1" xmlns="http://www.w3.org/2000/svg" xmlns:xlink="http://www.w3.org/1999/xlink" x="0px" y="0px"
	 viewBox="0 0 500 500" style="enable-background:new 0 0 500 500;" xml:space="preserve">
<style type="text/css">
	.st0{fill:#39B597;}
	.st1{fill:#F15A24;}
	.st2{display:none;}
	.st3{display:inline;}
	.st4{display:inline;fill:#F15A24;}
	.st5{display:inline;fill:#39B597;}
	.st6{font-family:'Spartan-Black';}
	.st7{font-size:26.1449px;}
	.st8{font-family:'Spartan-Regular';}
	.st9{font-size:8.0446px;}
</style>
<g id="BACKGROUND">
</g>
<g id="OBJECTS">
	<g id="XMLID_950_">
		<g id="XMLID_972_">
			<path id="XMLID_1019_" class="st0" d="M416.28,220.72c-1.81-2.28-4.53-3.6-7.41-3.6H117.54l-8.82-24.74
				c-1.37-3.85-4.95-6.41-8.96-6.41H21.41c-5.27,0-9.54,4.36-9.54,9.74c0,5.38,4.27,9.74,9.54,9.74h71.67l65.08,182.54l-17.31,68.65
				c-0.73,2.92-0.11,6.01,1.7,8.39c1.81,2.38,4.59,3.77,7.54,3.77h22.1c4.17,15.1,17.77,26.2,33.87,26.2s29.7-11.1,33.87-26.2h61.38
				c4.17,15.1,17.77,26.2,33.87,26.2c19.41,0,35.19-16.12,35.19-35.94c0-19.82-15.79-35.94-35.19-35.94
				c-16.1,0-29.7,11.1-33.87,26.2h-61.38c-4.17-15.1-17.77-26.2-33.87-26.2s-29.7,11.1-33.87,26.2h-9.8l13.13-52.1h200.11
				c4.51,0,8.4-3.22,9.33-7.73l33.24-160.63C418.79,225.99,418.09,223,416.28,220.72z M335.18,442.6c8.89,0,16.12,7.39,16.12,16.46
				s-7.23,16.46-16.12,16.46c-8.89,0-16.12-7.39-16.12-16.46S326.29,442.6,335.18,442.6z M206.06,442.6
				c8.89,0,16.12,7.39,16.12,16.46s-7.23,16.46-16.12,16.46c-8.5,0-15.46-6.75-16.06-15.27c0.05-0.39,0.08-0.79,0.08-1.19
				c0-0.4-0.03-0.8-0.08-1.19C190.6,449.35,197.57,442.6,206.06,442.6z M296.18,377.75l-23.76-60.99h42.89l23.76,60.99H296.18z
				 M232.76,377.75L209,316.76h42.89l23.76,60.99H232.76z M153.07,316.76h35.41l23.76,60.99h-37.43L153.07,316.76z M220.67,236.59
				l23.64,60.7h-42.89l-23.64-60.7H220.67z M264.84,297.29l-23.64-60.7h42.89l23.64,60.7H264.84z M304.61,236.59h42.89l23.64,60.7
				h-42.89L304.61,236.59z M387.02,285.35l-18.99-48.76h29.08L387.02,285.35z M157.25,236.59l23.64,60.7h-34.77l-21.64-60.7H157.25z
				 M367.9,377.75h-8.3l-23.76-60.99h42.89l1.17,3L367.9,377.75z"/>
			<g id="XMLID_945_">
				<path id="XMLID_979_" class="st1" d="M394.25,110.8c-5.09,1.38-8.12,6.71-6.77,11.91c6.11,23.51,5.6,49.23-1.44,72.43
					c-1.56,5.14,1.25,10.59,6.28,12.18c0.94,0.3,1.89,0.44,2.83,0.44c4.07,0,7.84-2.68,9.11-6.86c8.21-27.03,8.78-55.8,1.66-83.19
					C404.56,112.51,399.34,109.42,394.25,110.8z"/>
				<path id="XMLID_980_" class="st1" d="M296.08,29.84c26.47,7.03,50.52,23,67.71,44.96c3.29,4.2,9.29,4.88,13.4,1.53
					c4.11-3.36,4.78-9.49,1.49-13.69c-19.74-25.22-47.38-43.56-77.81-51.64c-50.62-13.45-104.92,1.77-141.7,39.73
					c-37.66,38.86-51.8,97.73-36.02,149.97c1.26,4.18,5.03,6.87,9.11,6.87c0.93,0,1.88-0.14,2.81-0.44
					c5.03-1.59,7.85-7.04,6.3-12.17c-13.73-45.47-1.42-96.71,31.36-130.53C204.75,31.38,252.01,18.13,296.08,29.84z"/>
				<path id="XMLID_981_" class="st1" d="M413.74,75.33c-2.94-4.46-8.87-5.65-13.23-2.65l-145.53,99.96l-25.26-64.85
					c-1.95-5-7.49-7.44-12.39-5.45c-4.89,1.99-7.28,7.65-5.34,12.65l29.63,76.07c1.07,2.74,3.29,4.83,6.04,5.7
					c0.92,0.29,1.87,0.44,2.82,0.44c1.88,0,3.73-0.57,5.32-1.66L411.14,88.85C415.51,85.85,416.68,79.8,413.74,75.33z"/>
			</g>
		</g>
	</g>
	<g id="XMLID_951_" class="st2">
		<g id="XMLID_970_" class="st3">
			<path id="XMLID_975_" class="st1" d="M425.47,373.12H299.64c-0.44,0-0.81-0.36-0.81-0.81c0-0.44,0.36-0.81,0.81-0.81h125.83
				c0.45,0,0.81,0.36,0.81,0.81C426.28,372.76,425.92,373.12,425.47,373.12z"/>
		</g>
		<path id="XMLID_1013_" class="st4" d="M384.85,358.92L384.85,358.92c-0.83-3.84-4.64-6.29-8.49-5.46
			c-3.19,0.69-5.42,3.43-5.61,6.54l-12.16,2.64c-0.57-1.07-1.39-1.98-2.44-2.65c-1.6-1.03-3.51-1.38-5.37-0.97
			c-1.86,0.4-3.46,1.51-4.49,3.11c-0.67,1.04-1.05,2.22-1.12,3.43l-1.94,0.42l0.41-10.67l39.64-8.61c0.89-0.19,1.53-0.99,1.52-1.9
			l-0.18-32.59c0-0.58-0.27-1.13-0.72-1.5c-0.45-0.36-1.05-0.5-1.62-0.38l-57.72,12.53l-2.79-4.42c-0.43-0.69-1.25-1.03-2.05-0.86
			l-15.52,3.37c-1.04,0.23-1.71,1.26-1.48,2.3c0.23,1.04,1.26,1.71,2.3,1.48l14.2-3.08l20.58,32.61l-0.54,14.06
			c-0.02,0.6,0.23,1.17,0.69,1.56c0.35,0.29,0.79,0.45,1.24,0.45c0.14,0,0.27-0.01,0.41-0.04l4.38-0.95
			c1.23,2.31,3.66,3.79,6.3,3.79c0.5,0,1.01-0.05,1.52-0.16c3.19-0.69,5.42-3.43,5.61-6.54l12.16-2.64c1.23,2.31,3.66,3.79,6.3,3.79
			c0.5,0,1.01-0.05,1.52-0.16C383.24,366.57,385.68,362.76,384.85,358.92z M345.82,322.2l7.24,10.76l-8.5,1.85l-7.24-10.76
			L345.82,322.2z M358.38,319.47l7.24,10.76l-8.5,1.85l-7.24-10.76L358.38,319.47z M370.95,316.74l7.24,10.76l-8.5,1.85l-7.24-10.76
			L370.95,316.74z M366.72,346.33l-7.28-10.81l8.5-1.85l7.28,10.81L366.72,346.33z M355.38,336.41l7.28,10.81l-8.5,1.85l-7.28-10.81
			L355.38,336.41z M350.09,349.95l-7.41,1.61l-6.88-10.9l7.02-1.52L350.09,349.95z M379.29,343.61l-7.28-10.81l8.5-1.85l0.36,0.53
			l0.07,11.77L379.29,343.61z M380.83,324.5l-5.82-8.64l5.76-1.25L380.83,324.5z M333.25,324.92l7.24,10.76l-6.89,1.5l-6.84-10.84
			L333.25,324.92z M352.99,369.18c-0.85,0.18-1.73,0.03-2.46-0.45c-0.67-0.43-1.14-1.07-1.36-1.82c-0.01-0.08-0.02-0.16-0.03-0.24
			c-0.02-0.08-0.04-0.16-0.07-0.23c-0.11-0.78,0.06-1.56,0.48-2.23c0.47-0.73,1.2-1.24,2.06-1.43c0.23-0.05,0.47-0.07,0.69-0.07
			c1.5,0,2.86,1.05,3.19,2.58C355.87,367.05,354.75,368.8,352.99,369.18z M378.57,363.63c-1.76,0.38-3.51-0.74-3.89-2.5
			c-0.38-1.76,0.74-3.51,2.5-3.89c0.23-0.05,0.47-0.07,0.69-0.07c1.5,0,2.86,1.05,3.19,2.58v0
			C381.45,361.5,380.33,363.24,378.57,363.63z"/>
		<g id="XMLID_973_" class="st3">
			<g id="XMLID_989_">
				<path id="XMLID_977_" class="st0" d="M336.3,317.74c-1.07,0-1.93-0.87-1.93-1.93v-37.65c0-1.07,0.87-1.93,1.93-1.93h46.32
					c1.07,0,1.93,0.87,1.93,1.93v27.66c0,1.07-0.87,1.93-1.93,1.93c-1.07,0-1.93-0.87-1.93-1.93v-25.73h-42.45v35.72
					C338.23,316.87,337.36,317.74,336.3,317.74z"/>
			</g>
			<g id="XMLID_988_">
				<path id="XMLID_976_" class="st0" d="M365.13,286.92h-10.77c-1.07,0-1.93-0.87-1.93-1.93c0-1.07,0.87-1.93,1.93-1.93h10.77
					c1.07,0,1.93,0.87,1.93,1.93C367.06,286.05,366.19,286.92,365.13,286.92z"/>
			</g>
		</g>
		<text id="XMLID_966_" transform="matrix(1 0 0 1 304.5012 412.5156)" class="st5 st6 st7">SHOPPING</text>
		<text id="XMLID_965_" transform="matrix(1 0 0 1 327.8479 429.4091)" class="st3 st8 st9">YOUR TAGLINE HERE</text>
	</g>
	<g id="XMLID_952_" class="st2">
		<text id="XMLID_964_" transform="matrix(1 0 0 1 304.5012 204.5101)" class="st5 st6 st7">SHOPPING</text>
		<text id="XMLID_963_" transform="matrix(1 0 0 1 327.8479 221.4027)" class="st3 st8 st9">YOUR TAGLINE HERE</text>
		<g id="XMLID_948_" class="st3">
			<path id="XMLID_998_" class="st1" d="M425.47,163.51h-50.53c0.26,0.5,0.46,1.04,0.59,1.61h49.94c0.45,0,0.81-0.36,0.81-0.81
				C426.28,163.87,425.92,163.51,425.47,163.51z"/>
			<g id="XMLID_978_">
				<path id="XMLID_984_" class="st1" d="M386.99,78.91c1.07,0,1.93-0.87,1.93-1.93c0-1.07-0.87-1.93-1.93-1.93h-10.77
					c-1.07,0-1.93,0.87-1.93,1.93c0,1.07,0.87,1.93,1.93,1.93H386.99z"/>
				<path id="XMLID_985_" class="st1" d="M408.67,68.21h-54.13c-1.07,0-1.93,0.87-1.93,1.93v35.45c0,1.07,0.87,1.93,1.93,1.93
					c1.07,0,1.93-0.87,1.93-1.93V72.08h50.26v89.17h-36.16c-1.07,0-1.93,0.87-1.93,1.93c0,1.07,0.87,1.93,1.93,1.93h38.09
					c1.07,0,1.93-0.87,1.93-1.93V70.14C410.6,69.08,409.74,68.21,408.67,68.21z"/>
			</g>
		</g>
		<g id="XMLID_949_" class="st3">
			<path id="XMLID_997_" class="st0" d="M362.91,164.62c0.11-0.38,0.25-0.76,0.43-1.11h-63.69c-0.44,0-0.81,0.36-0.81,0.81
				c0,0.45,0.36,0.81,0.81,0.81h63.11C362.8,164.95,362.85,164.78,362.91,164.62z"/>
			<g id="XMLID_960_">
				<path id="XMLID_991_" class="st0" d="M365.02,144.47c-0.06-1.07-0.96-1.88-2.03-1.83c-1.07,0.06-1.88,0.97-1.83,2.03l0.87,16.58
					h-38.51l2.16-41.03h3.29v2.41c0,1.07,0.87,1.93,1.93,1.93c1.07,0,1.93-0.87,1.93-1.93v-2.41h19.85v2.41
					c0,1.07,0.87,1.93,1.93,1.93c1.07,0,1.93-0.87,1.93-1.93v-2.41h3.29l0.51,9.63c0.06,1.07,0.97,1.89,2.03,1.83
					c1.07-0.06,1.89-0.97,1.83-2.03l-0.6-11.46c-0.05-1.03-0.9-1.83-1.93-1.83h-5.28c-1-6.21-6.73-10.99-13.64-10.99
					c-6.9,0-12.64,4.78-13.64,10.99h-5.28c-1.03,0-1.88,0.8-1.93,1.83l-2.37,44.9c-0.03,0.53,0.16,1.05,0.53,1.43
					c0.36,0.38,0.87,0.6,1.4,0.6h42.58c0.53,0,1.04-0.22,1.4-0.6c0.36-0.38,0.56-0.9,0.53-1.43L365.02,144.47z M342.78,109.23
					c4.75,0,8.72,3.06,9.7,7.13h-19.39C334.06,112.28,338.04,109.23,342.78,109.23z"/>
				<path id="XMLID_992_" class="st0" d="M380.59,125.32c-0.6-0.89-1.8-1.12-2.68-0.53l-29.5,19.84l-5.12-12.88
					c-0.39-0.99-1.52-1.48-2.51-1.08c-0.99,0.39-1.48,1.52-1.08,2.51l6.01,15.1c0.22,0.54,0.67,0.96,1.22,1.13
					c0.19,0.06,0.38,0.09,0.57,0.09c0.38,0,0.76-0.11,1.08-0.33L380.07,128C380.95,127.41,381.19,126.21,380.59,125.32z"/>
			</g>
		</g>
	</g>
	<g id="XMLID_953_" class="st2">
		<text id="XMLID_957_" transform="matrix(1 0 0 1 79.3894 412.5156)" class="st4 st6 st7">SHOPPING</text>
		<text id="XMLID_956_" transform="matrix(1 0 0 1 102.7361 429.4091)" class="st3 st8 st9">YOUR TAGLINE HERE</text>
		<g id="XMLID_947_" class="st3">
			<path id="XMLID_1041_" class="st1" d="M138.51,371.51H74.53c-0.44,0-0.81,0.36-0.81,0.81c0,0.44,0.36,0.81,0.81,0.81h63.98
				V371.51z"/>
			<path id="XMLID_1005_" class="st1" d="M140.89,371.09l-2.37-44.9c-0.05-1.03-0.9-1.83-1.93-1.83h-5.28
				c-1-6.21-6.73-10.99-13.64-10.99c-6.9,0-12.64,4.78-13.64,10.99h-5.28c-1.03,0-1.88,0.8-1.93,1.83l-2.37,44.9
				c-0.03,0.53,0.16,1.05,0.53,1.43c0.36,0.38,0.87,0.6,1.4,0.6h42.58c0.53,0,1.04-0.22,1.4-0.6
				C140.73,372.14,140.92,371.62,140.89,371.09z M117.67,317.23c4.75,0,8.72,3.06,9.7,7.13h-19.39
				C108.95,320.29,112.92,317.23,117.67,317.23z M98.42,369.26l2.16-41.03h3.29v2.41c0,1.07,0.87,1.93,1.93,1.93
				c1.07,0,1.93-0.87,1.93-1.93v-2.41h19.85v2.41c0,1.07,0.87,1.93,1.93,1.93c1.07,0,1.93-0.87,1.93-1.93v-2.41h3.29l2.16,41.03
				H98.42z"/>
		</g>
		<g id="XMLID_946_" class="st3">
			<path id="XMLID_1042_" class="st0" d="M200.36,371.51h-54.87v1.61h54.87c0.44,0,0.81-0.36,0.81-0.81
				C201.16,371.87,200.8,371.51,200.36,371.51z"/>
			<g id="XMLID_954_">
				<path id="XMLID_996_" class="st0" d="M200.79,324.67c0-26.72-21.74-48.45-48.45-48.45c-10.57,0-20.61,3.34-29.05,9.67
					c-8.15,6.11-14.29,14.82-17.27,24.51c-0.31,1.02,0.26,2.1,1.28,2.42c1.02,0.31,2.1-0.26,2.42-1.28
					c4.6-14.93,16.33-25.96,30.82-29.89c-1.49,1.48-2.9,3.26-4.23,5.33c-2.66,4.15-4.86,9.37-6.44,15.22
					c-5.62,1.51-10.66,3.6-14.81,6.19c-0.91,0.57-1.18,1.76-0.62,2.66c0.57,0.91,1.76,1.18,2.66,0.62
					c3.33-2.08,7.31-3.81,11.73-5.16c-0.42,1.99-0.77,4.03-1.04,6.11c-0.14,1.06,0.61,2.03,1.66,2.17c1.06,0.14,2.03-0.61,2.17-1.66
					c0.35-2.67,0.83-5.26,1.42-7.75c5.9-1.39,12.42-2.13,19.17-2.14c0.04,0,0.07,0.01,0.11,0.01c0.03,0,0.07,0,0.1-0.01
					c6.76,0.01,13.28,0.75,19.2,2.14c1.39,5.89,2.13,12.37,2.14,19.09c-0.01,0.07-0.01,0.14-0.01,0.22c0,0.07,0,0.15,0.01,0.22
					c-0.02,6.72-0.75,13.2-2.14,19.09c-5.95,1.4-12.51,2.15-19.3,2.15c-3.09,0-6.18-0.16-9.18-0.46c-1.07-0.11-2.01,0.66-2.12,1.73
					c-0.11,1.06,0.66,2.01,1.73,2.12c2.5,0.26,5.07,0.41,7.64,0.46v19.3h-5.62c-1.07,0-1.93,0.87-1.93,1.93
					c0,1.07,0.87,1.93,1.93,1.93h7.55c0.06,0,0.12,0,0.17-0.01C179.14,373.03,200.79,351.33,200.79,324.67z M195.32,312.84
					c-2.36-2.37-5.46-4.54-9.23-6.43c-3.39-1.7-7.18-3.12-11.28-4.22c-1.11-4.09-2.52-7.89-4.22-11.28
					c-1.9-3.77-4.07-6.87-6.43-9.23C179.25,285.84,191.16,297.75,195.32,312.84z M139.56,289.06c2.33-3.63,6.01-7.86,10.84-8.79
					v19.11c-5.64,0.11-11.12,0.72-16.22,1.78C135.59,296.53,137.41,292.4,139.56,289.06z M154.26,299.38v-19.11
					c4.77,0.92,9.28,5.23,12.87,12.37c1.3,2.59,2.43,5.45,3.36,8.51C165.39,300.09,159.91,299.49,154.26,299.38z M184.36,309.86
					c7.14,3.59,11.45,8.1,12.37,12.87h-19.11c-0.11-5.64-0.72-11.12-1.78-16.23C178.91,307.44,181.77,308.56,184.36,309.86z
					 M177.62,326.6h19.11c-0.92,4.77-5.23,9.28-12.37,12.87c-2.59,1.3-5.45,2.43-8.51,3.36
					C176.91,337.72,177.51,332.25,177.62,326.6z M154.26,369.07v-19.11c5.64-0.11,11.12-0.72,16.23-1.78
					c-0.93,3.06-2.06,5.92-3.36,8.51C163.55,363.84,159.04,368.15,154.26,369.07z M164.16,367.66c2.37-2.36,4.54-5.46,6.43-9.23
					c1.7-3.39,3.12-7.18,4.22-11.28c4.09-1.11,7.89-2.52,11.28-4.22c3.77-1.9,6.87-4.07,9.23-6.43
					C191.16,351.59,179.25,363.5,164.16,367.66z"/>
				<path id="XMLID_1038_" class="st0" d="M159.48,326.6c2.84,0,5.16-2.31,5.16-5.16v-4.52c0-2.84-2.31-5.16-5.16-5.16h-12.24
					c-2.84,0-5.16,2.31-5.16,5.16v15.49c0,2.84,2.31,5.16,5.16,5.16h15.47c1.07,0,1.93-0.87,1.93-1.93c0-1.07-0.87-1.93-1.93-1.93
					h-15.47c-0.71,0-1.29-0.58-1.29-1.29v-5.81H159.48z M145.95,316.93c0-0.71,0.58-1.29,1.29-1.29h12.24
					c0.71,0,1.29,0.58,1.29,1.29v4.52c0,0.71-0.58,1.29-1.29,1.29h-13.53V316.93z"/>
			</g>
		</g>
	</g>
</g>
</svg>
