<?xml version="1.0" standalone="no"?>
<!DOCTYPE svg PUBLIC "-//W3C//DTD SVG 20010904//EN"
 "http://www.w3.org/TR/2001/REC-SVG-20010904/DTD/svg10.dtd">
<svg version="1.0" xmlns="http://www.w3.org/2000/svg"
 width="640.000000pt" height="640.000000pt" viewBox="0 0 640.000000 640.000000"
 preserveAspectRatio="xMidYMid meet">

<g transform="translate(0.000000,640.000000) scale(0.100000,-0.100000)"
fill="#000000" stroke="none">
<path d="M2553 5469 c-24 -12 -52 -37 -65 -57 l-23 -37 -3 -737 -3 -738 -779
-2 c-769 -3 -779 -3 -806 -24 -15 -11 -37 -33 -48 -48 -21 -27 -21 -37 -21
-626 0 -589 0 -599 21 -626 11 -15 33 -37 48 -48 27 -21 37 -21 806 -24 l779
-2 3 -738 3 -737 23 -37 c13 -21 40 -45 66 -57 41 -21 56 -21 650 -21 l608 0
40 22 c21 12 49 38 61 58 l22 35 3 737 3 738 779 2 c769 3 779 3 806 24 15 11
37 33 48 48 21 27 21 37 21 626 0 589 0 599 -21 626 -11 15 -33 37 -48 48 -27
21 -37 21 -806 24 l-779 2 -3 738 -3 737 -23 37 c-13 21 -40 45 -66 57 -41 21
-56 21 -647 21 -593 0 -605 0 -646 -21z m1049 -1041 l3 -743 24 -34 c13 -18
42 -42 65 -52 39 -18 82 -19 804 -19 l762 0 0 -380 0 -380 -762 0 c-722 0
-765 -1 -804 -19 -23 -10 -52 -34 -65 -52 l-24 -34 -3 -743 -2 -742 -400 0
-400 0 -2 743 -3 742 -24 34 c-13 18 -42 42 -65 52 -39 18 -82 19 -803 19
l-763 0 0 380 0 380 763 0 c721 0 764 1 803 19 23 10 52 34 65 52 l24 34 3
743 2 742 400 0 400 0 2 -742z"/>
</g>
</svg>
